<?xml version="1.0" encoding="utf-8"?>
<!-- Generator: Adobe Illustrator 25.0.1, SVG Export Plug-In . SVG Version: 6.00 Build 0)  -->
<svg version="1.1" id="katman_1" xmlns="http://www.w3.org/2000/svg" xmlns:xlink="http://www.w3.org/1999/xlink" x="0px" y="0px"
	 viewBox="0 0 560 400" style="enable-background:new 0 0 560 400;" xml:space="preserve">
<style type="text/css">
	.st0{fill:#00832D;}
	.st1{fill:#34A853;}
</style>
<g transform="matrix(1.07982 0 0 1.07982 146.83 65)">
	<path class="st0" d="M130.6,43.4v65.3c0,4,3.3,7.3,7.3,7.3h65.3c0-20-4.5-41.8-17.6-55C172.4,47.8,150.6,43.4,130.6,43.4z"/>
	<path class="st0" d="M201.8,259.7c-30.5,5-67.4-4-102.7-25.1l11.9-26.4l26.9-12.4l42.1,24.1L201.8,259.7z"/>
	<path class="st0" d="M-9.6,48.4c-5,30.5,3.9,67.4,25.1,102.7l27.2-12.7l11.6-26.1L31.5,74.9L-9.6,48.4z"/>
	<g>
		<path class="st1" d="M141.5-11.1c-6,0-10.9,4.9-10.9,10.9v43.5c40.1,0,72.6,32.5,72.6,72.6h43.5c6,0,10.9-4.9,10.9-10.9
			C257.6,41,205.6-11.1,141.5-11.1z"/>
		<path class="st1" d="M247.3,234.7c5.8-5.6,6-14.6,0.5-20.4l-52.5-55.9c-5.8-5.4-14.7-5.3-20.2,0.2l-37.2,37.1l63.9,63.9
			c17.3-2.5,30.3-9.9,42-21.7L247.3,234.7z"/>
		<path class="st1" d="M15.7,151.1C25.2,167,38,183,52.4,197.5c14.5,14.5,30.8,27.4,46.7,37l38.9-38.7l-83.6-83.5"/>
		<path class="st1" d="M82.4,85.2l6-5.8c7.1-7.1,7.1-18.7,0-25.8L39.1,4.3c-7.1-7.1-18.7-7.1-25.8,0l-1.7,1.2
			C0.1,16.9-6.8,31.7-9.6,48.4l64,63.9L82.4,85.2z"/>
	</g>
</g>
</svg>
